# xmcd
#
# Track frame offsets: 
#        150
#        10383
#        23513
#        34338
#        45002
#        59463
#        71590
#        93094
#        103933
#        118471
#        133626
#        147474
#        162506
#        174417
#        188153
#        202440
#        212714
#        226102
#        239852
#        254327
#        265159
#        277279
#        290131
#
# Disc length: 4019 seconds
#
# Revision: 0
# Processed by: cddbd v1.5.2PL0 Copyright (c) Steve Scherf et al.
# Submitted via: ExactAudioCopy v0.99pb4
#
DISCID=6c0fb117
DTITLE=Various Artist - Nobody Sings Dylan Like Dylan: Good As I Been
DTITLE=To You, World Gone Wrong
DYEAR=1940
DGENRE=Blues
TTITLE0=The Stanley Brothers - Little Maggie
TTITLE1=Blind Boy Fuller - Step It Up And Go
TTITLE2=Gene Vincent - You Belong To Me
TTITLE3=Reverend Gary Davis - Cocaine Blues
TTITLE4=Mississippi Sheiks - Sittin' On Top Of The World
TTITLE5=Blind Blake Arthur Phelps - You Gonna Quit Me Blues
TTITLE6=William Brown - Ragged And Dirty
TTITLE7=Henry Logan English - Love
TTITLE8=Monroe Gevedon - The Two Soldiers
TTITLE9=Mississippi Sheiks - The World Is Going Wrong
TTITLE10=Blind Willie McTell - Broke Down Engine Blues
TTITLE11=Mississippi John Hurt - Frankie And Albert
TTITLE12=The Carter Family - Blackjack David
TTITLE13=A.L. Lloyd - Jim Jones At Botany Bay
TTITLE14=Alan Mills - A Frog He Would A-Wooing Go (Froggie Went A-Cour
TTITLE14=tin')
TTITLE15=L. M. Hilton - Hard Times Come Again No More
TTITLE16=Frank Hutchison - Stackalee
TTITLE17=Lonnie Johnson - Tomorrow Night
TTITLE18=Mississippi Sheiks - I've Got Blood In My Eyes For You
TTITLE19=Cisco Houston - Diamond Joe
TTITLE20=The Carter Family - Hello Stranger
TTITLE21=Robert Johnson - 32-20 Blues
TTITLE22=Blind Willie McTell - Delia
EXTD=
EXTT0=
EXTT1=
EXTT2=
EXTT3=
EXTT4=
EXTT5=
EXTT6=
EXTT7=
EXTT8=
EXTT9=
EXTT10=
EXTT11=
EXTT12=
EXTT13=
EXTT14=
EXTT15=
EXTT16=
EXTT17=
EXTT18=
EXTT19=
EXTT20=
EXTT21=
EXTT22=
PLAYORDER=
